<?xml version="1.0" encoding="UTF-8" standalone="no"?>
<!-- Created with Inkscape (http://www.inkscape.org/) -->

<svg
   xmlns:dc="http://purl.org/dc/elements/1.1/"
   xmlns:cc="http://creativecommons.org/ns#"
   xmlns:rdf="http://www.w3.org/1999/02/22-rdf-syntax-ns#"
   xmlns:svg="http://www.w3.org/2000/svg"
   xmlns="http://www.w3.org/2000/svg"
   xmlns:sodipodi="http://sodipodi.sourceforge.net/DTD/sodipodi-0.dtd"
   xmlns:inkscape="http://www.inkscape.org/namespaces/inkscape"
   width="32.717419mm"
   height="37.105099mm"
   viewBox="0 0 32.717419 37.105097"
   version="1.1"
   id="svg8"
   inkscape:version="0.92.5 (2060ec1f9f, 2020-04-08)"
   sodipodi:docname="css.svg">
  <defs
     id="defs2">
    <clipPath
       id="clipPath3444"
       clipPathUnits="userSpaceOnUse">
      <path
   id="path3446"
   d="M 11.52,162 C 11.52,81.677 135.307,16.561 288,16.561 v 0 c 152.693,0 276.481,65.116 276.481,145.439 v 0 c 0,80.322 -123.788,145.439 -276.481,145.439 v 0 C 135.307,307.439 11.52,242.322 11.52,162"
   inkscape:connector-curvature="0" />

    </clipPath>
    <radialGradient
       spreadMethod="pad"
       r="1"
       id="radialGradient3452"
       gradientUnits="userSpaceOnUse"
       gradientTransform="matrix(363.05789,0,0,-363.05789,177.52002,256.30713)"
       fy="0"
       fx="0"
       cy="0"
       cx="0">
      <stop
   style="stop-opacity:1;stop-color:#aeb2d5"
   offset="0"
   id="stop3454" />

      <stop
   style="stop-opacity:1;stop-color:#aeb2d5"
   offset="0.3"
   id="stop3456" />

      <stop
   style="stop-opacity:1;stop-color:#484c89"
   offset="0.75"
   id="stop3458" />

      <stop
   style="stop-opacity:1;stop-color:#484c89"
   offset="1"
   id="stop3460" />

    </radialGradient>
    <clipPath
       id="clipPath3468"
       clipPathUnits="userSpaceOnUse">
      <path
   id="path3470"
   d="M 0,324 H 576 V 0 H 0 Z"
   inkscape:connector-curvature="0" />

    </clipPath>
    <clipPath
       id="clipPath3480"
       clipPathUnits="userSpaceOnUse">
      <path
   id="path3482"
   d="M 0,324 H 576 V 0 H 0 Z"
   inkscape:connector-curvature="0" />

    </clipPath>
  </defs>
  <sodipodi:namedview
     id="base"
     pagecolor="#ffffff"
     bordercolor="#666666"
     borderopacity="1.0"
     inkscape:pageopacity="0.0"
     inkscape:pageshadow="2"
     inkscape:zoom="2.5196045"
     inkscape:cx="73.107823"
     inkscape:cy="69.659341"
     inkscape:document-units="mm"
     inkscape:current-layer="g4950"
     showgrid="false"
     inkscape:window-width="1366"
     inkscape:window-height="698"
     inkscape:window-x="0"
     inkscape:window-y="34"
     inkscape:window-maximized="1" />
  <metadata
     id="metadata5">
    <rdf:RDF>
      <cc:Work
         rdf:about="">
        <dc:format>image/svg+xml</dc:format>
        <dc:type
           rdf:resource="http://purl.org/dc/dcmitype/StillImage" />
        <dc:title></dc:title>
      </cc:Work>
    </rdf:RDF>
  </metadata>
  <g
     inkscape:label="Tavolo 1"
     inkscape:groupmode="layer"
     id="layer1"
     transform="translate(-42.413384,-75.370534)">
    <g
       id="g3919"
       transform="matrix(0.26458333,0,0,0.26458333,37.321866,90.289533)">
      <g
         transform="matrix(1.25,0,0,-1.25,-193.17468,247.68216)"
         id="g3438">
    
    
    <g
   id="g3476"
   transform="matrix(0.45680948,0,0,0.45680948,115.03704,117.34043)">
      <g
   id="g3478"
   clip-path="url(#clipPath3480)">
        
        
        
        
        
        
      <g
   id="g4909"
   transform="matrix(0.39660425,0,0,-0.39660425,133.98818,243.58364)">
  <g
     id="g4950"
     transform="matrix(1.2094799,0,0,1.2094799,-71.439506,-80.825683)">
    <path
       id="path4930"
       d="M 71.357,460.819 30.272,0 H 481.728 L 440.599,460.746 255.724,512 Z"
       inkscape:connector-curvature="0"
       style="fill:#ffffff;fill-opacity:1" />
    <path
       id="path4934"
       d="m 125.90899,208.59 5.065,56.517 h 126.475 V 208.59 Z m -5.041,-57.875 h 136.581 V 94.197 h -141.719 z m 136.581,204.657 -0.248,0.066 -62.944,-16.996 -4.023,-45.076 h -56.736 l 7.919,88.741 115.772,32.14 0.26,-0.073 z"
       inkscape:connector-curvature="0"
       style="fill:#bb4430;fill-opacity:1" />
    <path
       id="path4936"
       d="m 255.805,208.59 v 56.517 H 325.4 l -6.56,73.299 -63.035,17.013 v 58.8 l 115.864,-32.112 0.85,-9.549 13.28,-148.792 1.38,-15.176 10.203,-114.393 H 255.805 v 56.518 h 79.639 L 330.3,208.59 Z"
       inkscape:connector-curvature="0"
       style="fill:#bb4430;fill-opacity:1" />
  </g>
</g>
</g>

    </g>

  </g>
    </g>
  </g>
</svg>
