<?xml version="1.0" encoding="UTF-8" standalone="no"?>
<!-- Created with Inkscape (http://www.inkscape.org/) -->

<svg
   xmlns:dc="http://purl.org/dc/elements/1.1/"
   xmlns:cc="http://creativecommons.org/ns#"
   xmlns:rdf="http://www.w3.org/1999/02/22-rdf-syntax-ns#"
   xmlns:svg="http://www.w3.org/2000/svg"
   xmlns="http://www.w3.org/2000/svg"
   xmlns:sodipodi="http://sodipodi.sourceforge.net/DTD/sodipodi-0.dtd"
   xmlns:inkscape="http://www.inkscape.org/namespaces/inkscape"
   width="27.023495mm"
   height="30.678556mm"
   viewBox="0 0 27.023495 30.678555"
   version="1.1"
   id="svg8"
   inkscape:version="0.92.5 (2060ec1f9f, 2020-04-08)"
   sodipodi:docname="html.svg">
  <defs
     id="defs2">
    <clipPath
       id="clipPath3444"
       clipPathUnits="userSpaceOnUse">
      <path
   id="path3446"
   d="M 11.52,162 C 11.52,81.677 135.307,16.561 288,16.561 v 0 c 152.693,0 276.481,65.116 276.481,145.439 v 0 c 0,80.322 -123.788,145.439 -276.481,145.439 v 0 C 135.307,307.439 11.52,242.322 11.52,162"
   inkscape:connector-curvature="0" />

    </clipPath>
    <radialGradient
       spreadMethod="pad"
       r="1"
       id="radialGradient3452"
       gradientUnits="userSpaceOnUse"
       gradientTransform="matrix(363.05789,0,0,-363.05789,177.52002,256.30713)"
       fy="0"
       fx="0"
       cy="0"
       cx="0">
      <stop
   style="stop-opacity:1;stop-color:#aeb2d5"
   offset="0"
   id="stop3454" />

      <stop
   style="stop-opacity:1;stop-color:#aeb2d5"
   offset="0.3"
   id="stop3456" />

      <stop
   style="stop-opacity:1;stop-color:#484c89"
   offset="0.75"
   id="stop3458" />

      <stop
   style="stop-opacity:1;stop-color:#484c89"
   offset="1"
   id="stop3460" />

    </radialGradient>
    <clipPath
       id="clipPath3468"
       clipPathUnits="userSpaceOnUse">
      <path
   id="path3470"
   d="M 0,324 H 576 V 0 H 0 Z"
   inkscape:connector-curvature="0" />

    </clipPath>
    <clipPath
       id="clipPath3480"
       clipPathUnits="userSpaceOnUse">
      <path
   id="path3482"
   d="M 0,324 H 576 V 0 H 0 Z"
   inkscape:connector-curvature="0" />

    </clipPath>
  </defs>
  <sodipodi:namedview
     id="base"
     pagecolor="#ffffff"
     bordercolor="#666666"
     borderopacity="1.0"
     inkscape:pageopacity="0.0"
     inkscape:pageshadow="2"
     inkscape:zoom="2.8998265"
     inkscape:cx="36.50902"
     inkscape:cy="63.383715"
     inkscape:document-units="mm"
     inkscape:current-layer="g4909"
     showgrid="false"
     inkscape:window-width="1366"
     inkscape:window-height="698"
     inkscape:window-x="0"
     inkscape:window-y="34"
     inkscape:window-maximized="1" />
  <metadata
     id="metadata5">
    <rdf:RDF>
      <cc:Work
         rdf:about="">
        <dc:format>image/svg+xml</dc:format>
        <dc:type
           rdf:resource="http://purl.org/dc/dcmitype/StillImage" />
        <dc:title></dc:title>
      </cc:Work>
    </rdf:RDF>
  </metadata>
  <g
     inkscape:label="Tavolo 1"
     inkscape:groupmode="layer"
     id="layer1"
     transform="translate(-46.297705,-80.213532)">
    <g
       id="g3919"
       transform="matrix(0.26458333,0,0,0.26458333,37.321866,90.289533)">
      <g
         transform="matrix(1.25,0,0,-1.25,-193.17468,247.68216)"
         id="g3438">
    
    
    <g
   id="g3476"
   transform="matrix(0.45680948,0,0,0.45680948,115.03704,117.34043)">
      <g
   id="g3478"
   clip-path="url(#clipPath3480)">
        
        
        
        
        
        
      <g
   id="g4909"
   transform="matrix(0.39660425,0,0,-0.39660425,133.98818,243.58364)">
  <path
     id="path4889"
     d="M 71,460 30,0 h 451 l -41,460 -185,52"
     inkscape:connector-curvature="0"
     style="fill:#ffffff;fill-opacity:1" />
  <path
     id="path4893"
     d="m 256,208 h -75 l -5,-58 h 80 V 94 h -1 -141 l 1,15 14,156 h 127 z m 0,147 h -1 l -63,-17 -4,-45 h -30 -26 l 7,89 116,32 h 1 z"
     inkscape:connector-curvature="0"
     style="fill:#bb4430;fill-opacity:1" />
  <path
     id="path4895"
     d="m 255,208 v 57 h 70 l -7,73 -63,17 v 59 l 116,-32 1,-10 13,-149 2,-15 h -16 z m 0,-114 v 35 21 0 h 137 v 0 0 l 1,-12 3,-29 1,-15 z"
     inkscape:connector-curvature="0"
     style="fill:#bb4430;fill-opacity:1" />
</g>
</g>

    </g>

  </g>
    </g>
  </g>
</svg>
