<?xml version="1.0" encoding="UTF-8" standalone="no"?>
<!-- Created with Inkscape (http://www.inkscape.org/) -->

<svg
   xmlns:dc="http://purl.org/dc/elements/1.1/"
   xmlns:cc="http://creativecommons.org/ns#"
   xmlns:rdf="http://www.w3.org/1999/02/22-rdf-syntax-ns#"
   xmlns:svg="http://www.w3.org/2000/svg"
   xmlns="http://www.w3.org/2000/svg"
   xmlns:sodipodi="http://sodipodi.sourceforge.net/DTD/sodipodi-0.dtd"
   xmlns:inkscape="http://www.inkscape.org/namespaces/inkscape"
   width="24.908329mm"
   height="30.715696mm"
   viewBox="0 0 24.908329 30.715696"
   version="1.1"
   id="svg8"
   inkscape:version="0.92.5 (2060ec1f9f, 2020-04-08)"
   sodipodi:docname="jquery.svg">
  <defs
     id="defs2" />
  <sodipodi:namedview
     id="base"
     pagecolor="#ffffff"
     bordercolor="#666666"
     borderopacity="1.0"
     inkscape:pageopacity="0.0"
     inkscape:pageshadow="2"
     inkscape:zoom="1.9721154"
     inkscape:cx="258.94098"
     inkscape:cy="74.031246"
     inkscape:document-units="mm"
     inkscape:current-layer="g3919"
     showgrid="false"
     inkscape:window-width="1366"
     inkscape:window-height="698"
     inkscape:window-x="0"
     inkscape:window-y="34"
     inkscape:window-maximized="1" />
  <metadata
     id="metadata5">
    <rdf:RDF>
      <cc:Work
         rdf:about="">
        <dc:format>image/svg+xml</dc:format>
        <dc:type
           rdf:resource="http://purl.org/dc/dcmitype/StillImage" />
        <dc:title></dc:title>
      </cc:Work>
    </rdf:RDF>
  </metadata>
  <g
     inkscape:label="Tavolo 1"
     inkscape:groupmode="layer"
     id="layer1"
     transform="translate(-37.321867,-92.725909)">
    <g
       id="g3919"
       transform="matrix(0.26458333,0,0,0.26458333,37.321866,90.289533)">
      <path
         id="path3713"
         d="m 27.834353,111.05282 2e-4,-9.8e-4 c 0,0 -0.66297,2.34965 -0.66297,2.34965 0,0 0.66273,-2.34867 0.66273,-2.34867 z"
         inkscape:connector-curvature="0"
         style="fill:#ffffff;fill-rule:nonzero;stroke-width:0.19778228" />
      <path
         id="path3715"
         d="m 31.244123,116.15383 c 0,0 -0.73057,-0.004 -0.73057,-0.004 0,0 0.73057,0.004 0.73057,0.004 z"
         inkscape:connector-curvature="0"
         style="fill:#ffffff;fill-rule:nonzero;stroke-width:0.19778228" />
      <path
         id="path3717"
         d="m 31.056223,119.66268 h 7.9e-4 c 0,0 -4.37712,0.0159 -4.37712,0.0159 0,0 4.37653,-0.0159 4.37653,-0.0159 z"
         inkscape:connector-curvature="0"
         style="fill:#ffffff;fill-rule:nonzero;stroke-width:0.19778228" />
      <path
         id="path3719"
         d="m 31.973933,116.15818 c 0,0 -0.73082,-0.004 -0.73082,-0.004 0,0 0.73082,0.004 0.73082,0.004 z"
         inkscape:connector-curvature="0"
         style="fill:#ffffff;fill-rule:nonzero;stroke-width:0.19778228" />
      <path
         id="path3721"
         d="m 31.439923,119.36443 c 0,0 0.76245,-2.9078 0.76245,-2.9078 0,0 -0.76245,2.90839 -0.76245,2.90839 v -4e-4 z"
         inkscape:connector-curvature="0"
         style="fill:#ffffff;fill-rule:nonzero;stroke-width:0.19778228" />
      <path
         id="path3723"
         d="m 47.555223,105.97357 c 0,0 -1.42035,6.67714 -1.42035,6.67714 0,0 1.42035,-6.67714 1.42035,-6.67714 z"
         inkscape:connector-curvature="0"
         style="fill:#ffffff;fill-rule:nonzero;stroke-width:0.19778228" />
      <path
         id="path3725"
         d="m 43.904163,105.97357 c 0,0 -1.07825,4.98808 -1.07825,4.98808 0,0 1.07825,-4.98847 1.07825,-4.98847 z"
         inkscape:connector-curvature="0"
         style="fill:#ffffff;fill-rule:nonzero;stroke-width:0.19778228" />
      <path
         id="path3727"
         d="m 47.311953,105.67314 h -3.03715 c -0.16852,0 -0.33583,0.13521 -0.37181,0.29986 0,0 -1.07823,4.98847 -1.07823,4.98847 0,0 -1.07825,4.98846 -1.07825,4.98846 -0.0357,0.16466 -0.2028,0.29939 -0.37131,0.29939 h -1.84286 -0.30686 c -2.12675,0 -1.88077,-1.47081 -1.44521,-3.48631 0.004,-0.0203 0.009,-0.0401 0.013,-0.0608 0,0 0.0478,-0.25399 0.0478,-0.25399 0.003,-0.0164 0.006,-0.0328 0.009,-0.0478 0,0 0.0971,-0.51716 0.0971,-0.51716 0,0 0.10405,-0.55432 0.10405,-0.55432 0.0316,-0.16708 0.0797,-0.41141 0.11106,-0.56495 0,0 0.49011,-2.39494 0.49011,-2.39494 0,0 0.4906,-2.39495 0.4906,-2.39495 0.0338,-0.16514 -0.0768,-0.30083 -0.24529,-0.30083 h -3.11745 c -0.16852,0 -0.33536,0.13569 -0.36987,0.30035 0,0 -0.67022,3.18015 -0.67022,3.18015 0,0 -0.67023,3.17974 -0.67023,3.17974 -5.9e-4,10e-4 -7.9e-4,0.003 -9.9e-4,0.005 0,0 -0.0623,0.29552 -0.0623,0.29552 -0.7721,3.52488 -0.56735,6.88619 3.62872,6.99141 0.0686,0.002 0.12168,0.002 0.12168,0.002 h 6.58655 c 0.16852,0 0.33536,-0.1352 0.3706,-0.30035 0,0 1.42035,-6.67654 1.42035,-6.67654 0,0 1.42036,-6.67713 1.42036,-6.67713 0.035,-0.16514 -0.0744,-0.30035 -0.24288,-0.30035 z"
         inkscape:connector-curvature="0"
         style="fill:#ffffff;fill-rule:nonzero;stroke-width:0.19778228" />
      <path
         id="path3729"
         d="m 59.428093,116.28417 c 0.16876,0 0.27909,0.1352 0.24529,0.30035 0,0 -0.29503,1.44136 -0.29503,1.44136"
         inkscape:connector-curvature="0"
         style="fill:#ffffff;fill-rule:nonzero;stroke-width:0.19778228" />
      <path
         id="path3731"
         d="m 59.083953,119.46806 c 0,0 0.29479,-1.44232 0.29479,-1.44232 0,0 -0.29503,1.4428 -0.29503,1.4428 0,-4e-4 2e-4,-4e-4 2e-4,-4e-4 z"
         inkscape:connector-curvature="0"
         style="fill:#ffffff;fill-rule:nonzero;stroke-width:0.19778228" />
      <path
         id="path3733"
         d="m 58.714093,119.77146 c 4e-4,0 9.9e-4,-3.9e-4 0.001,-3.9e-4 -0.89378,0.007 -3.57966,0.0275 -5.59843,0.0275 2.45686,0 5.59685,-0.027 5.59685,-0.027 z"
         inkscape:connector-curvature="0"
         style="fill:#ffffff;fill-rule:nonzero;stroke-width:0.19778228" />
      <path
         id="path3735"
         d="m 51.305173,114.42758 c -0.002,-0.1579 0.17721,-0.42976 0.34598,-0.42976 0,0 -0.37929,-0.006 -0.37929,-0.006 -0.17093,1.71901 0.0333,0.43603 0.0333,0.43603 z"
         inkscape:connector-curvature="0"
         style="fill:#ffffff;fill-rule:nonzero;stroke-width:0.19778228" />
      <path
         id="path3737"
         d="m 53.393753,119.79797 c -0.0193,0 -0.0391,0 -0.0584,3.9e-4 0.0193,-3.9e-4 0.0391,-3.9e-4 0.0584,-3.9e-4 z"
         inkscape:connector-curvature="0"
         style="fill:#ffffff;fill-rule:nonzero;stroke-width:0.19778228" />
      <path
         id="path3739"
         d="m 59.428093,116.28417 c 0.16876,0 0.27909,0.1352 0.24529,0.30035 0,0 -0.29503,1.44136 -0.29503,1.44136 0,0 -0.048,0.23516 -0.048,0.23516"
         inkscape:connector-curvature="0"
         style="fill:#ffffff;fill-rule:nonzero;stroke-width:0.19778228" />
      <path
         id="path3741"
         d="m 54.831633,119.7946 h -0.0123 z"
         inkscape:connector-curvature="0"
         style="fill:#ffffff;fill-rule:nonzero;stroke-width:0.19778228" />
      <path
         id="path3743"
         d="m 54.085993,119.79698 h -0.0432 z"
         inkscape:connector-curvature="0"
         style="fill:#ffffff;fill-rule:nonzero;stroke-width:0.19778228" />
      <path
         id="path3745"
         d="m 53.858543,119.79757 c -0.0241,0 -0.0478,0 -0.0715,4e-4 0.0237,-4e-4 0.0473,-4e-4 0.0715,-4e-4 z"
         inkscape:connector-curvature="0"
         style="fill:#ffffff;fill-rule:nonzero;stroke-width:0.19778228" />
      <path
         id="path3747"
         d="m 53.627133,119.79797 h -0.0628 z"
         inkscape:connector-curvature="0"
         style="fill:#ffffff;fill-rule:nonzero;stroke-width:0.19778228" />
      <path
         id="path3749"
         d="m 54.042483,119.79698 c -0.0616,0 -0.12313,3.9e-4 -0.18397,3.9e-4 0.0608,0 0.1224,-3.9e-4 0.18397,-3.9e-4 z"
         inkscape:connector-curvature="0"
         style="fill:#ffffff;fill-rule:nonzero;stroke-width:0.19778228" />
      <path
         id="path3751"
         d="m 54.819763,119.7946 c -0.24578,9.9e-4 -0.49107,0.002 -0.73274,0.002 0.24167,-4e-4 0.48722,-0.001 0.73274,-0.002 z"
         inkscape:connector-curvature="0"
         style="fill:#ffffff;fill-rule:nonzero;stroke-width:0.19778228" />
      <path
         id="path3753"
         d="m 58.716073,119.77087 h 2e-4 c -0.65501,0.005 -2.27252,0.0174 -3.88563,0.0237 1.61228,-0.006 3.23018,-0.0183 3.88543,-0.0237 z"
         inkscape:connector-curvature="0"
         style="fill:#ffffff;fill-rule:nonzero;stroke-width:0.19778228" />
      <path
         id="path3755"
         d="m 59.083953,119.46866 c 0,0 0.24699,-1.20766 0.24699,-1.20766 0,0 -0.24723,1.20861 -0.24723,1.20861 0,-4e-4 2e-4,-4e-4 2e-4,-9.9e-4 z"
         inkscape:connector-curvature="0"
         style="fill:#ffffff;fill-rule:nonzero;stroke-width:0.19778228" />
      <path
         id="path3757"
         d="m 53.787343,119.79797 h -0.16031 z"
         inkscape:connector-curvature="0"
         style="fill:#ffffff;fill-rule:nonzero;stroke-width:0.19778228" />
      <path
         id="path3759"
         d="m 53.334423,119.79836 h -0.21681 z"
         inkscape:connector-curvature="0"
         style="fill:#ffffff;fill-rule:nonzero;stroke-width:0.19778228" />
      <path
         id="path3761"
         d="m 53.563843,119.79797 h -0.17093 z"
         inkscape:connector-curvature="0"
         style="fill:#ffffff;fill-rule:nonzero;stroke-width:0.19778228" />
      <path
         id="path3763"
         d="m 9.1360135,114.46378 c 0,0 0.47175,-2.09135 0.47175,-2.09135 0,0 -0.53935,2.39059 -0.53935,2.39059 0,0 -0.51763,2.4351 -0.51763,2.4351 0,0 0.45365,-2.13467 0.45365,-2.13467 0.035,-0.16514 0.0944,-0.43506 0.13158,-0.59971 z"
         inkscape:connector-curvature="0"
         style="fill:#ffffff;fill-rule:nonzero;stroke-width:0.19778228" />
      <path
         id="path3765"
         d="m 14.782703,105.63794 h -3.3354 c -0.16876,0 -0.33704,0.13472 -0.3747,0.29889 0,0 -0.31628,1.39597 -0.31628,1.39597 0,0 -0.31627,1.39646 -0.31627,1.39646 -0.0372,0.16417 0.0703,0.29889 0.23902,0.29889 h 3.36131 c 0.16852,0 0.33607,-0.13472 0.37229,-0.29939 0,0 0.30565,-1.39596 0.30565,-1.39596 0,0 0.30565,-1.395 0.30565,-1.395 v -4e-4 c 0.036,-0.16466 -0.0724,-0.29938 -0.24119,-0.29938 z"
         inkscape:connector-curvature="0"
         style="fill:#ffffff;fill-rule:nonzero;stroke-width:0.19778228" />
      <path
         id="path3767"
         d="m 14.056843,110.28167 v -3.9e-4 c 0,0 -0.97829,4.52585 -0.97829,4.52585 0,0 0.97829,-4.52546 0.97829,-4.52546 z"
         inkscape:connector-curvature="0"
         style="fill:#ffffff;fill-rule:nonzero;stroke-width:0.19778228" />
      <path
         id="path3769"
         d="m 4.3674835,125.27713 c 0,0 1.68135,0.0217 2.75016,0.0217 -0.81193,0 -2.15286,-0.0149 -2.75154,-0.0222 5.9e-4,0 9.9e-4,3.9e-4 0.002,3.9e-4 z"
         inkscape:connector-curvature="0"
         style="fill:#ffffff;fill-rule:nonzero;stroke-width:0.19778228" />
      <path
         id="path3771"
         d="m 10.079433,110.28108 c 0,0 -0.4722395,2.09135 -0.4722395,2.09135 0,0 0.4722395,-2.09135 0.4722395,-2.09135 z"
         inkscape:connector-curvature="0"
         style="fill:#ffffff;fill-rule:nonzero;stroke-width:0.19778228" />
      <path
         id="path3773"
         d="m 13.815543,109.98183 h -3.3617 c -0.16852,0 -0.33704,0.13473 -0.37423,0.29939 0,0 -0.4722395,2.09135 -0.4722395,2.09135 0,0 -0.47175,2.09135 -0.47175,2.09135 -0.0372,0.16466 -0.0966,0.43458 -0.13159,0.59971 0,0 -0.45365,2.13467 -0.45365,2.13467 0,0 -0.45341,2.13466 -0.45341,2.13466 -0.0353,0.16466 -0.10768,0.43071 -0.16176,0.59054 0,0 -0.62796,1.86868 -1.68376,1.84744 -0.0449,-9.9e-4 -0.0886,-10e-4 -0.13183,-0.002 -0.5116,-0.01 -0.91357,-0.0169 -0.91357,-0.0169 h -7.9e-4 c -0.16828,-0.002 -0.33754,0.12892 -0.37688,0.29262 0,0 -0.34863,1.46551 -0.34863,1.46551 0,0 -0.34815,1.46501 -0.34815,1.46501 -0.0391,0.16369 0.0666,0.29889 0.23419,0.30179 0.59877,0.007 1.93967,0.0222 2.75155,0.0222 2.63723,0 4.0274395,-1.46116 4.9186395,-5.66587 0,0 1.04299,-4.82569 1.04299,-4.82569 0,0 0.97829,-4.52585 0.97829,-4.52585 0.0355,-0.16466 -0.0734,-0.29939 -0.24193,-0.29939 z"
         inkscape:connector-curvature="0"
         style="fill:#ffffff;fill-rule:nonzero;stroke-width:0.19778228" />
      <path
         id="path3775"
         d="m 61.570073,119.62748 c -0.16852,0 -0.27788,-0.13521 -0.2424,-0.30036 0,0 2.52884,-11.84518 2.52884,-11.84518"
         inkscape:connector-curvature="0"
         style="fill:#ffffff;fill-rule:nonzero;stroke-width:0.19778228" />
      <path
         id="path3777"
         d="m 65.084663,119.32665 c 0,0 1.02271,-5.05571 1.02271,-5.05571 0,0 -1.02271,5.05571 -1.02271,5.05571 z"
         inkscape:connector-curvature="0"
         style="fill:#ffffff;fill-rule:nonzero;stroke-width:0.19778228" />
      <path
         id="path3779"
         d="m 61.364383,119.47736 c -0.0205,-0.0826 -0.008,-0.28489 0.0273,-0.45003 0,0 1.20016,-5.62256 1.20016,-5.62256 0,0 -1.26438,5.92239 -1.26438,5.92239 -0.0355,0.16514 0.0739,0.30036 0.2424,0.30036 h 0.30712 c -0.16877,0 -0.49228,-0.0676 -0.51258,-0.15017 z"
         inkscape:connector-curvature="0"
         style="fill:#ffffff;fill-rule:nonzero;stroke-width:0.19778228" />
      <path
         id="path3781"
         d="m 64.884903,119.55984 c -0.0917,0.0372 -0.30518,0.0676 -0.47392,0.0676 h 0.30709 c 0.16852,0 0.33414,-0.13521 0.36746,-0.30083 0,0 0.0608,-0.30035 0.0608,-0.30035 -0.0336,0.16514 -0.16948,0.49639 -0.26147,0.53358 z"
         inkscape:connector-curvature="0"
         style="fill:#ffffff;fill-rule:nonzero;stroke-width:0.19778228" />
      <path
         id="path3783"
         d="m 65.596923,116.7988 c 0,0 0.45148,-2.23138 0.45148,-2.23138 -2e-4,0.001 -4e-4,0.003 -8e-4,0.004 0,0 -0.45074,2.22703 -0.45074,2.22703 z"
         inkscape:connector-curvature="0"
         style="fill:#ffffff;fill-rule:nonzero;stroke-width:0.19778228" />
      <path
         id="path3785"
         d="m 75.575033,108.27537 c 0,0 0.13931,0.57558 0.13931,0.57558 0.0384,0.16466 -0.0681,0.29842 -0.23637,0.29889"
         inkscape:connector-curvature="0"
         style="fill:#ffffff;fill-rule:nonzero;stroke-width:0.19778228" />
      <path
         id="path3787"
         d="m 65.145973,119.02642 c 0,0 0.45028,-2.22743 0.45028,-2.22743 0,0 -0.45028,2.22743 -0.45028,2.22743 z"
         inkscape:connector-curvature="0"
         style="fill:#ffffff;fill-rule:nonzero;stroke-width:0.19778228" />
      <path
         id="path3789"
         d="m 75.436593,107.68578 c 0,0 0.13786,0.58959 0.13786,0.58959 0,0 -0.13786,-0.58959 -0.13786,-0.58959 z"
         inkscape:connector-curvature="0"
         style="fill:#ffffff;fill-rule:nonzero;stroke-width:0.19778228" />
      <path
         id="path3791"
         d="m 66.047863,114.56761 c 0.0336,-0.16514 0.0891,-0.43265 0.1241,-0.59633 0,0 0.48214,-2.25887 0.48214,-2.25887 0,0 -0.54612,2.55871 -0.54612,2.55871 0,0 -0.0601,0.29647 -0.0601,0.29647 z"
         inkscape:connector-curvature="0"
         style="fill:#ffffff;fill-rule:nonzero;stroke-width:0.19778228" />
      <path
         id="path3793"
         d="m 63.897973,107.28784 c -0.0336,0.15935 -0.0765,0.3607 -0.10503,0.49398 0,0 -1.20016,5.62295 -1.20016,5.62295 0,0 1.26438,-5.92279 1.26438,-5.92279 0,0 0.0408,-0.19411 0.0408,-0.19411 z"
         inkscape:connector-curvature="0"
         style="fill:#ffffff;fill-rule:nonzero;stroke-width:0.19778228" />
      <path
         id="path3795"
         d="m 75.713483,108.85091 c 0,0 -0.1393,-0.57558 -0.1393,-0.57558 0,0 -0.13787,-0.58959 -0.13787,-0.58959 0,0 -0.0698,-0.29841 -0.0698,-0.29841 -0.27306,-1.06087 -1.07463,-1.67315 -2.81503,-1.67315 0,0 -2.70962,-0.003 -2.70962,-0.003 0,0 -2.49542,-0.003 -2.49542,-0.003 h -0.21416 -2.59372 c -0.16852,0 -0.33535,0.13472 -0.37011,0.29986 h -1.9e-4 c 0,0 -0.1241,0.58668 -0.1241,0.58668 0,0 -0.14655,0.69292 -0.14655,0.69292 0,0 -0.0408,0.19411 -0.0408,0.19411 0,0 -1.26438,5.92279 -1.26438,5.92279 0,0 -1.20016,5.62256 -1.20016,5.62256 -0.0357,0.16514 -0.0478,0.36746 -0.0273,0.45003 0.0203,0.0826 0.3438,0.15017 0.51255,0.15017 h 2.5332 c 0.16876,0 0.38219,-0.0304 0.47392,-0.0676 0.092,-0.0372 0.22791,-0.36843 0.26147,-0.53358 0,0 0.45027,-2.22742 0.45027,-2.22742 0,0 0.45075,-2.22703 0.45075,-2.22703 1.9e-4,-9.9e-4 3.9e-4,-0.003 7.9e-4,-0.004 0,0 0.0601,-0.29648 0.0601,-0.29648 0,0 0.54611,-2.55871 0.54611,-2.55871 0,0 0.48239,-2.25986 0.48239,-2.25986 0.0357,-0.16417 0.20184,-0.29841 0.37011,-0.29889 0,0 7.97063,-0.004 7.97063,-0.004 0.16828,-4e-4 0.27476,-0.13424 0.23637,-0.29889 z"
         inkscape:connector-curvature="0"
         style="fill:#ffffff;fill-rule:nonzero;stroke-width:0.19778228" />
      <path
         id="path3797"
         d="m 85.974433,103.64655 c -0.16876,10e-4 -0.44472,0.002 -0.61349,0.002 h -2.55119 c -0.16876,0 -0.38484,0.11396 -0.47998,0.25326 0,0 -5.64134,8.26473 -5.64134,8.26473 -0.0954,0.13955 -0.20401,0.11879 -0.24143,-0.0454 0,0 -0.41503,-1.82088 -0.41503,-1.82088 -0.0374,-0.16466 -0.20643,-0.29889 -0.37496,-0.29889 h -3.62673 c -0.16876,0 -0.26871,0.13231 -0.2226,0.29456 0,0 1.62509,5.69297 1.62509,5.69297 0.0464,0.16224 0.0497,0.42879 0.008,0.592 0,0 -0.70836,2.7553 -0.70836,2.7553 -0.042,0.16369 0.0618,0.29745 0.23057,0.29745 h 3.58441 c 0.16852,0 0.3409,-0.13376 0.38267,-0.29745 0,0 0.70861,-2.7553 0.70861,-2.7553 0.0418,-0.16321 0.15911,-0.40753 0.26076,-0.54226 0,0 9.15851,-12.15551 9.15851,-12.15551 0.10164,-0.13472 0.0466,-0.24434 -0.12193,-0.24312 0,0 -0.96138,0.006 -0.96138,0.006 z"
         inkscape:connector-curvature="0"
         style="fill:#ffffff;fill-rule:nonzero;stroke-width:0.19778228" />
      <path
         id="path3799"
         d="m 57.161503,110.77652 c 0,0 -1.9e-4,-0.003 -1.9e-4,-0.003 -0.0212,0.183 -0.19001,0.31724 -0.35854,0.31724 h -4.59805 c -0.15886,0 -0.23975,-0.10816 -0.21633,-0.24143 10e-4,-0.004 0.002,-0.007 0.004,-0.0106 0,0 -0.002,4e-4 -0.003,0.001 9.9e-4,-0.005 9.9e-4,-0.0101 0.002,-0.0154 0,0 0.009,-0.0324 0.021,-0.0782 0.43916,-1.16757 1.33369,-1.93388 3.0148,-1.93388 1.89259,0 2.26203,0.9247 2.13347,1.9643 z m -1.34889,-5.30729 c -5.90202,0 -7.30054,3.58243 -8.08514,7.19809 -0.78466,3.68528 -0.71706,7.13104 5.39016,7.13104 h 0.21681 c 0.0193,-3.9e-4 0.0391,-3.9e-4 0.0584,-3.9e-4 h 0.17093 0.0628 0.16031 c 0.0237,-4e-4 0.0473,-4e-4 0.0715,-4e-4 0.0608,0 0.12241,-4e-4 0.18397,-4e-4 h 0.0432 c 0.24167,-3.9e-4 0.48698,-0.002 0.73274,-0.002 h 0.0123 c 1.61302,-0.006 3.23058,-0.0183 3.88583,-0.0237 0.16756,-0.002 0.33149,-0.13761 0.36602,-0.3013 0,0 0.24723,-1.20861 0.24723,-1.20861 0,0 0.048,-0.23516 0.048,-0.23516 0,0 0.29504,-1.44136 0.29504,-1.44136 0.0338,-0.16514 -0.0765,-0.30035 -0.24529,-0.30035 h -5.49064 c -2.18371,0 -2.83224,-0.58041 -2.59332,-2.28636 h 8.77698 c 0,0 -7.9e-4,9.9e-4 -7.9e-4,9.9e-4 0.002,0 0.004,-9.9e-4 0.006,-9.9e-4 0.13954,-0.002 0.26847,-0.0985 0.31965,-0.22646 0.01,-0.0246 0.0179,-0.0502 0.0212,-0.0768 0,0 -9.9e-4,9.9e-4 -9.9e-4,9.9e-4 1.30327,-4.91568 0.92952,-8.22616 -4.65342,-8.22616 z"
         inkscape:connector-curvature="0"
         style="fill:#ffffff;fill-rule:nonzero;stroke-width:0.19778228" />
      <path
         id="path3801"
         d="m 27.917423,110.75773 c 0,0 -0.0831,0.29407 -0.0831,0.29407 0,9.8e-4 -2e-4,9.8e-4 -2e-4,9.8e-4 0,0 -0.66272,2.34867 -0.66272,2.34867 0,0 -0.6625,2.34827 -0.6625,2.34827 -0.0459,0.16224 -0.22116,0.29503 -0.39016,0.29503 h -3.50787 c -2.66076,0 -3.3087,-2.08106 -2.66076,-5.15065 0.64777,-3.13959 1.91795,-5.09131 4.53673,-5.2889 3.57867,-0.26993 4.29464,2.24721 3.43053,5.15263 z m 2.40562,5.10635 c 0,0 1.65382,-4.01558 2.02945,-6.33517 0.51225,-3.10499 -1.04232,-7.60789 -7.04699,-7.60789 -5.97045,0 -8.56298,4.29919 -9.55229,8.97279 -0.98914,4.70741 0.30686,8.83592 6.2434,8.8021 0,0 4.68328,-0.0174 4.68328,-0.0174 0,0 4.37712,-0.0159 4.37712,-0.0159 0.16852,-0.001 0.3409,-0.1352 0.38388,-0.29794 0,0 0.76245,-2.90838 0.76245,-2.90838 0.0425,-0.16321 -0.0606,-0.29745 -0.22911,-0.29842 0,0 -0.73083,-0.004 -0.73083,-0.004 0,0 -0.73056,-0.004 -0.73056,-0.004 -0.14342,-9.9e-4 -0.2255,-0.0937 -0.20811,-0.21681 0.003,-0.0222 0.008,-0.0449 0.0179,-0.0686 z"
         inkscape:connector-curvature="0"
         style="fill:#ffffff;fill-rule:nonzero;stroke-width:0.19778228" />
      <path
         id="path3803"
         d="m 59.879033,113.17641 c 0,0.11106 -0.09,0.20136 -0.20136,0.20136 -0.11106,0 -0.20136,-0.0903 -0.20136,-0.20136 0,-0.11106 0.0903,-0.20086 0.20136,-0.20086 0.1113,0 0.20136,0.0898 0.20136,0.20086 z"
         inkscape:connector-curvature="0"
         style="fill:#ffffff;fill-rule:nonzero;stroke-width:0.19778228" />
      <path
         id="path3805"
         d="m 5.9785,30.509 c -8.335,11.98 -7.2974,27.566 -0.93018,40.295 0.15138,0.30518 0.31006,0.60546 0.46631,0.90576 0.10012,0.19043 0.19409,0.38574 0.29785,0.57373 0.05862,0.11225 0.1245,0.22216 0.18555,0.32959 0.10862,0.20263 0.21972,0.39551 0.33202,0.59326 0.19776,0.34912 0.4004,0.6958 0.60791,1.0425 0.11475,0.19042 0.22828,0.38085 0.34669,0.57128 0.22949,0.37109 0.46509,0.7373 0.70556,1.1035 0.10012,0.15625 0.19775,0.3125 0.30029,0.46386 0.33204,0.49561 0.67139,0.98877 1.0217,1.4746 0.0087,0.0125 0.01825,0.0269 0.02925,0.039 0.055,0.0781 0.116,0.15381 0.17212,0.23194 0.30274,0.41747 0.61524,0.83007 0.9314,1.2378 0.116,0.14892 0.23315,0.29785 0.35034,0.44677 0.28199,0.35401 0.56885,0.70558 0.8606,1.0571 0.10862,0.13184 0.2185,0.26366 0.32836,0.39306 0.39185,0.46143 0.79101,0.92041 1.1987,1.3696 0.0075,0.007 0.01713,0.0171 0.02437,0.0244 0.01713,0.0195 0.03175,0.0317 0.04637,0.0512 0.39795,0.43457 0.80566,0.85937 1.2183,1.2842 0.12816,0.13184 0.25879,0.26368 0.39062,0.39308 0.31982,0.32226 0.64452,0.63965 0.9729,0.95458 0.13305,0.12695 0.26489,0.25635 0.39795,0.37842 0.43822,0.4126 0.88134,0.81787 1.333,1.2134 0.0075,0.007 0.01337,0.0125 0.02075,0.0171 0.07688,0.0684 0.15625,0.13184 0.23194,0.19775 0.39795,0.34424 0.80322,0.68604 1.2109,1.023 0.16601,0.13428 0.33448,0.26612 0.50171,0.40039 0.33325,0.26611 0.67016,0.52979 1.0095,0.78858 0.17945,0.13672 0.35889,0.27343 0.53956,0.41016 0.37475,0.27587 0.75195,0.54687 1.1328,0.81299 0.13915,0.10012 0.27344,0.19775 0.41259,0.29296 0.039,0.0269 0.0745,0.0537 0.1135,0.0806 0.36134,0.24902 0.7312,0.48827 1.0999,0.72754 0.15869,0.105 0.31616,0.21483 0.47608,0.31737 0.5664,0.35889 1.1414,0.7129 1.7224,1.0547 0.15746,0.0904 0.31738,0.17822 0.47606,0.26856 0.42725,0.24658 0.85694,0.48828 1.2927,0.7251 0.2356,0.12695 0.4773,0.24658 0.71534,0.36865 0.30761,0.16113 0.61279,0.3247 0.92529,0.48095 0.07075,0.0343 0.14405,0.0684 0.21362,0.1025 0.12574,0.061 0.25269,0.11963 0.37842,0.18311 0.48461,0.23194 0.9729,0.45899 1.4661,0.67872 0.105,0.0464 0.2063,0.0928 0.31006,0.13916 0.56518,0.24657 1.1352,0.48339 1.7102,0.71045 0.13794,0.0561 0.2771,0.10987 0.41626,0.16356 0.53222,0.20509 1.0718,0.40773 1.6138,0.59815 0.06838,0.0244 0.13429,0.0464 0.20264,0.0707 0.59449,0.20753 1.1951,0.40039 1.7993,0.58838 0.14404,0.0415 0.2893,0.0879 0.43456,0.1294 0.61524,0.18555 1.2232,0.40771 1.8579,0.5249 40.31,7.3511 52.019,-24.224 52.019,-24.224 -9.834,12.812 -27.29,16.191 -43.829,12.429 -0.62622,-0.1416 -1.2341,-0.33691 -1.8457,-0.51758 -0.15504,-0.0464 -0.30762,-0.0927 -0.46021,-0.13916 -0.59692,-0.1831 -1.189,-0.37597 -1.7773,-0.57861 -0.08062,-0.0292 -0.16236,-0.0586 -0.24415,-0.0879 -0.52734,-0.18555 -1.0486,-0.38086 -1.5674,-0.58105 -0.14649,-0.0586 -0.29298,-0.11475 -0.43945,-0.17334 -0.56885,-0.22461 -1.134,-0.45899 -1.6919,-0.70312 -0.11475,-0.0489 -0.22461,-0.10013 -0.33814,-0.14894 -0.47974,-0.21728 -0.95459,-0.437 -1.427,-0.66406 -0.13671,-0.0659 -0.27344,-0.12939 -0.4126,-0.19775 -0.371,-0.181 -0.738,-0.374 -1.104,-0.562 -0.245,-0.129 -0.494,-0.251 -0.737,-0.386 -0.447,-0.239 -0.886,-0.488 -1.323,-0.742 -0.148,-0.083 -0.298,-0.163 -0.447,-0.249 -0.581,-0.342 -1.155,-0.696 -1.723,-1.055 -0.157,-0.1 -0.31,-0.207 -0.465,-0.31 -0.412,-0.266 -0.822,-0.537 -1.226,-0.815 -0.134,-0.091 -0.263,-0.188 -0.395,-0.278 -0.39,-0.276 -0.776,-0.555 -1.159,-0.838 -0.174,-0.129 -0.345,-0.259 -0.514,-0.388 -0.351,-0.269 -0.7,-0.54 -1.046,-0.818 -0.15625,-0.1245 -0.3125,-0.24902 -0.46631,-0.37354 -0.43945,-0.36132 -0.87402,-0.7251 -1.3025,-1.0986 -0.04512,-0.039 -0.094,-0.0781 -0.14282,-0.11963 -0.46386,-0.40771 -0.91919,-0.8252 -1.3696,-1.2451 -0.13062,-0.1245 -0.25758,-0.24659 -0.38575,-0.3711 -0.33325,-0.31738 -0.66161,-0.6372 -0.98389,-0.96435 -0.12939,-0.1294 -0.25879,-0.25635 -0.38574,-0.38575 -0.41015,-0.41991 -0.81299,-0.84473 -1.2073,-1.2768 -0.0195,-0.022 -0.04025,-0.0415 -0.05975,-0.0635 -0.41749,-0.45655 -0.8252,-0.92285 -1.2244,-1.394 -0.10862,-0.12939 -0.21362,-0.2539 -0.32105,-0.38085 -0.29785,-0.35889 -0.59326,-0.72266 -0.88135,-1.0889 -0.108,-0.132 -0.216,-0.267 -0.323,-0.403 -0.347,-0.45 -0.686,-0.899 -1.018,-1.355 -9.1823,-12.525 -12.481,-29.8 -5.142,-43.987"
         inkscape:connector-curvature="0"
         style="fill:#ffffff;fill-rule:nonzero" />
      <path
         id="path3807"
         d="m 31.852,20.416 c -6.0278,8.6743 -5.7007,20.286 -0.99854,29.46 0.78858,1.5381 1.6748,3.0298 2.666,4.4507 0.90331,1.2939 1.9043,2.8345 3.103,3.8745 0.43458,0.47852 0.88868,0.94482 1.3525,1.4038 0.11712,0.11963 0.23681,0.23438 0.35645,0.35157 0.45044,0.43701 0.9082,0.8667 1.3818,1.2842 0.0195,0.0146 0.03663,0.0341 0.05613,0.0489 0.005,0.005 0.01,0.007 0.01337,0.0125 0.52368,0.45899 1.0644,0.90089 1.6138,1.3354 0.12212,0.0927 0.24292,0.19044 0.36621,0.28565 0.55054,0.42237 1.1121,0.8374 1.6882,1.2329 0.01713,0.0125 0.03175,0.0244 0.04888,0.0366 0.25391,0.17578 0.5127,0.33936 0.77026,0.50781 0.12325,0.0806 0.24049,0.16602 0.365,0.2417 0.41138,0.26367 0.82762,0.52002 1.2512,0.7666 0.05987,0.0366 0.11838,0.0684 0.177,0.1025 0.365,0.20995 0.73486,0.41747 1.106,0.61767 0.12939,0.0732 0.26122,0.13672 0.39306,0.20508 0.25635,0.13427 0.5127,0.271 0.77392,0.40039 0.039,0.0195 0.07937,0.0366 0.11712,0.0538 0.53101,0.26122 1.0669,0.5127 1.6138,0.75195 0.11712,0.0513 0.23804,0.0976 0.35644,0.14648 0.43701,0.18555 0.87891,0.36622 1.3232,0.53712 0.18799,0.0708 0.37841,0.13916 0.5664,0.20751 0.40284,0.14892 0.80689,0.28565 1.2146,0.42236 0.18432,0.0586 0.365,0.11963 0.54932,0.17579 0.57982,0.18066 1.1523,0.40771 1.7566,0.50781 31.123,5.1562 38.308,-18.806 38.308,-18.806 -6.477,9.3286 -19.02,13.779 -32.405,10.305 -0.59449,-0.15625 -1.1804,-0.32715 -1.7627,-0.51027 -0.17822,-0.0537 -0.35279,-0.11225 -0.52979,-0.17088 -0.41381,-0.13429 -0.82519,-0.27589 -1.2329,-0.42482 -0.18676,-0.0684 -0.37352,-0.13671 -0.55664,-0.20751 -0.44678,-0.1709 -0.88868,-0.34912 -1.3269,-0.53467 -0.11962,-0.0513 -0.24049,-0.0976 -0.35768,-0.15137 -0.54931,-0.23926 -1.0901,-0.49072 -1.6235,-0.7544 -0.27466,-0.13427 -0.54444,-0.27587 -0.81421,-0.41503 -0.15625,-0.0805 -0.31372,-0.16113 -0.46998,-0.2417 -0.34668,-0.18799 -0.69091,-0.3833 -1.0303,-0.58105 -0.0805,-0.0464 -0.16479,-0.0904 -0.24658,-0.13917 -0.42115,-0.24658 -0.83619,-0.50048 -1.2476,-0.76171 -0.12695,-0.0806 -0.24902,-0.16846 -0.37598,-0.25147 -0.271,-0.17578 -0.54199,-0.354 -0.8081,-0.53467 -0.57374,-0.39551 -1.1316,-0.81055 -1.6821,-1.2305 -0.12695,-0.10013 -0.2539,-0.19775 -0.37841,-0.29785 -5.859,-4.626 -10.503,-10.947 -12.711,-18.115 -2.314,-7.434 -1.815,-15.779 2.194,-22.551"
         inkscape:connector-curvature="0"
         style="fill:#ffffff;fill-rule:nonzero" />
      <path
         id="path3809"
         d="m 53.613,12.875 c -3.5535,5.2295 -3.9026,11.724 -1.4368,17.5 2.6001,6.1304 7.9285,10.94 14.147,13.22 0.25635,0.0953 0.5127,0.18066 0.77271,0.26855 0.1135,0.0342 0.22582,0.0733 0.34058,0.10737 0.36621,0.11475 0.72998,0.24903 1.1084,0.31983 17.185,3.3203 21.846,-8.8184 23.087,-10.605 -4.0832,5.8789 -10.945,7.29 -19.364,5.2466 -0.665,-0.162 -1.396,-0.402 -2.037,-0.629 -0.822,-0.293 -1.632,-0.627 -2.419,-1.005 -1.495,-0.718 -2.92,-1.59 -4.241,-2.588 -7.534,-5.716 -12.214,-16.621 -7.298,-25.502"
         inkscape:connector-curvature="0"
         style="fill:#ffffff;fill-rule:nonzero" />
    </g>
  </g>
</svg>
